<?xml version="1.0" standalone="no"?>
<!DOCTYPE svg PUBLIC "-//W3C//DTD SVG 20010904//EN"
 "http://www.w3.org/TR/2001/REC-SVG-20010904/DTD/svg10.dtd">
<svg version="1.0" xmlns="http://www.w3.org/2000/svg"
 width="60" height="60" viewBox="0 0 500.000000 500.000000"
 preserveAspectRatio="xMidYMid meet">

<g transform="translate(0.000000,500.000000) scale(0.100000,-0.100000)"
fill="#000000" stroke="none">
<path d="M2525 3203 c-49 -13 -175 -17 -680 -22 -617 -6 -620 -6 -669 -29 -75
-34 -131 -86 -162 -147 -23 -48 -26 -64 -22 -118 6 -69 23 -109 69 -162 41
-46 53 -36 27 23 -31 69 -30 164 1 219 14 24 42 54 62 69 72 49 96 53 362 54
l247 0 -2 -644 -3 -644 -25 -27 c-32 -34 -72 -55 -105 -55 -14 0 -25 -4 -25
-10 0 -6 113 -10 320 -10 207 0 320 4 320 10 0 6 -12 10 -28 10 -41 0 -93 32
-114 71 -17 32 -18 73 -18 666 l0 633 172 0 c155 0 176 -2 216 -21 57 -28 97
-90 107 -164 3 -31 11 -53 16 -50 11 7 12 365 2 364 -5 -1 -35 -8 -68 -16z"/>
<path d="M2735 3171 c3 -6 18 -11 32 -11 37 0 89 -28 110 -58 17 -25 18 -67
21 -630 l3 -603 -23 12 c-50 27 -128 120 -167 201 -40 81 -71 202 -71 273 0
41 -17 47 -26 9 -9 -36 4 -190 22 -260 38 -150 140 -277 278 -344 121 -60 215
-81 391 -87 295 -10 499 50 636 186 97 97 132 207 109 338 -30 174 -154 295
-335 326 l-63 11 41 26 c74 47 127 153 127 254 0 129 -65 228 -193 291 -134
66 -145 68 -541 72 -254 3 -356 1 -351 -6z m584 -97 c114 -33 167 -132 159
-293 -7 -135 -60 -226 -149 -252 -50 -15 -50 -29 -1 -29 21 0 64 -7 97 -15
176 -46 265 -158 265 -334 0 -229 -135 -365 -377 -379 l-93 -5 0 662 0 661 23
0 c13 0 47 -7 76 -16z"/>
</g>
</svg>
